<?xml version="1.0" standalone="no"?>
<!DOCTYPE svg PUBLIC "-//W3C//DTD SVG 20010904//EN"
 "http://www.w3.org/TR/2001/REC-SVG-20010904/DTD/svg10.dtd">
<svg version="1.0" xmlns="http://www.w3.org/2000/svg"
 width="300.000000pt" height="149.000000pt" viewBox="0 0 300.000000 149.000000"
 preserveAspectRatio="xMidYMid meet">

<g transform="translate(0.000000,149.000000) scale(0.100000,-0.100000)"
fill="#000000" stroke="none">
<path d="M1420 1484 c-47 -9 -145 -47 -184 -72 -138 -86 -226 -263 -213 -426
14 -181 135 -342 306 -407 69 -26 198 -36 271 -20 183 39 338 196 371 376 14
75 5 178 -22 250 -44 119 -163 233 -286 276 -54 20 -192 32 -243 23z m272 -58
c114 -54 211 -166 243 -280 24 -81 17 -219 -15 -301 -30 -77 -138 -189 -222
-228 -184 -87 -398 -43 -537 109 -73 80 -102 148 -109 258 -8 136 29 245 116
338 95 102 195 139 357 135 96 -3 117 -6 167 -31z"/>
<path d="M1405 1431 c-114 -29 -227 -123 -259 -217 -23 -68 -21 -138 6 -185
21 -37 21 -40 5 -57 -25 -24 -48 -6 -70 54 l-18 49 5 -75 c9 -147 81 -261 200
-316 82 -37 144 -42 207 -15 47 21 53 21 68 7 21 -22 5 -47 -40 -64 -32 -12
-30 -12 31 -8 36 3 85 12 110 21 110 38 202 148 222 267 11 62 10 65 -17 112
-27 47 -28 49 -10 62 10 8 22 14 25 14 17 0 44 -45 51 -83 l6 -42 2 54 c4 174
-104 325 -264 366 -75 19 -91 19 -140 -5 -50 -24 -71 -25 -79 -3 -10 25 27 55
76 64 39 6 37 7 -22 7 -36 0 -78 -3 -95 -7z m63 -193 c5 -40 -25 -94 -69 -126
-40 -30 -41 -42 -3 -42 16 0 29 12 46 42 24 44 58 63 58 33 0 -9 -10 -29 -22
-45 -33 -46 -11 -54 45 -17 37 25 47 37 47 60 0 67 49 131 97 125 24 -3 28 -8
31 -40 3 -32 -3 -44 -38 -82 -43 -46 -45 -68 -7 -65 38 2 47 -1 47 -16 0 -15
-10 -19 -42 -16 -28 3 -77 -28 -93 -59 -43 -83 14 -195 89 -176 40 10 66 41
66 80 0 55 -42 85 -71 50 -10 -12 -10 -20 -1 -35 17 -27 15 -39 -8 -39 -42 0
-51 88 -10 110 36 20 87 12 109 -16 41 -52 20 -151 -36 -172 -59 -23 -73 -23
-118 -3 -36 16 -50 29 -65 63 -11 24 -20 53 -20 66 0 36 27 91 61 123 48 45
27 46 -40 3 -57 -37 -60 -41 -67 -89 -15 -115 -63 -175 -139 -175 -34 0 -47 5
-59 22 -39 56 -4 123 96 183 84 51 92 59 47 51 -34 -6 -41 -3 -82 37 -48 47
-62 76 -52 107 10 32 24 23 27 -17 4 -49 19 -43 41 18 22 59 59 91 101 87 25
-2 32 -8 34 -30z"/>
<path d="M1401 1219 c-24 -23 -45 -68 -35 -78 9 -10 64 57 64 79 0 25 -1 25
-29 -1z"/>
<path d="M1638 1222 c-20 -21 -32 -62 -20 -62 11 0 37 30 45 52 9 24 -7 31
-25 10z"/>
<path d="M1352 940 c-46 -33 -62 -57 -62 -93 0 -65 88 -16 110 61 20 72 13 76
-48 32z"/>
<path d="M74 331 c-35 -21 -48 -52 -64 -151 -14 -92 -13 -125 8 -149 21 -27
100 -38 158 -22 49 13 68 44 82 134 l9 57 -64 0 c-48 0 -63 -3 -63 -14 0 -8
-3 -21 -6 -30 -5 -12 0 -16 20 -16 28 0 36 -26 14 -48 -18 -18 -77 -15 -85 4
-11 29 14 157 33 171 26 19 62 16 76 -7 9 -13 24 -20 45 -20 32 0 33 2 33 39
0 54 -26 71 -105 71 -41 0 -70 -6 -91 -19z"/>
<path d="M1380 343 c0 -5 -11 -80 -24 -168 -13 -88 -20 -164 -16 -168 4 -5 18
-7 31 -5 23 3 25 10 46 148 30 200 30 200 -7 200 -16 0 -30 -3 -30 -7z"/>
<path d="M1620 338 c0 -7 -11 -83 -24 -168 -13 -85 -21 -159 -17 -163 4 -4 50
-6 102 -5 l94 3 3 38 3 37 -61 0 -61 0 3 33 c3 32 3 32 66 35 61 3 62 3 62 32
0 30 -1 30 -55 30 -54 0 -55 0 -55 30 l0 30 64 0 c63 0 64 0 70 31 3 17 6 35
6 40 0 5 -45 9 -100 9 -73 0 -100 -3 -100 -12z"/>
<path d="M1865 318 c-19 -110 -43 -303 -39 -310 3 -4 16 -8 29 -8 17 0 26 7
30 23 5 25 45 304 45 318 0 5 -13 9 -30 9 -25 0 -30 -4 -35 -32z"/>
<path d="M2746 334 c-12 -32 -6 -44 23 -44 28 0 41 14 41 46 0 20 -56 18 -64
-2z"/>
<path d="M2390 280 c0 -10 -6 -23 -13 -27 -18 -10 -31 -63 -17 -63 8 0 9 -27
4 -85 -7 -84 -6 -84 19 -96 32 -15 94 -4 105 19 5 9 12 29 16 45 6 24 4 27
-20 27 -17 0 -28 -6 -31 -20 -3 -11 -12 -20 -20 -20 -11 0 -12 9 -8 37 16 96
14 93 50 93 21 0 35 6 39 16 13 34 7 44 -29 44 -31 0 -35 3 -35 25 0 21 -5 25
-30 25 -23 0 -30 -4 -30 -20z"/>
<path d="M327 230 c-31 -25 -47 -75 -47 -147 0 -45 4 -55 25 -69 52 -34 155 1
155 52 0 16 -55 20 -65 4 -3 -5 -17 -10 -31 -10 -19 0 -24 5 -24 25 0 24 2 25
65 25 l65 0 0 54 c0 45 -4 58 -22 70 -32 22 -90 20 -121 -4z m83 -55 c0 -10
-10 -15 -30 -15 -29 0 -38 9 -23 23 13 13 53 7 53 -8z"/>
<path d="M515 218 c-36 -215 -35 -225 12 -216 14 2 21 20 31 83 14 84 29 112
57 101 14 -5 16 -14 12 -44 -22 -139 -22 -142 6 -142 14 0 29 5 32 10 4 6 13
52 20 103 12 80 12 95 -1 114 -17 27 -50 30 -82 7 -20 -14 -22 -14 -22 0 0 11
-9 16 -30 16 -25 0 -30 -4 -35 -32z"/>
<path d="M773 238 c-29 -14 -53 -76 -56 -144 -2 -48 1 -58 22 -75 51 -41 161
-7 161 50 0 14 -57 14 -65 1 -3 -5 -17 -10 -31 -10 -19 0 -24 5 -24 25 0 24 2
25 65 25 l65 0 0 54 c0 45 -4 58 -22 70 -25 18 -82 20 -115 4z m77 -63 c0 -10
-10 -15 -30 -15 -29 0 -38 9 -23 23 13 13 53 7 53 -8z"/>
<path d="M956 238 c-12 -36 -33 -224 -26 -231 4 -5 18 -7 31 -5 22 3 25 11 37
88 7 47 17 89 22 94 12 12 30 -2 30 -25 0 -14 7 -19 25 -19 28 0 42 33 31 75
-9 34 -33 42 -67 22 -19 -10 -28 -12 -26 -4 3 17 -52 22 -57 5z"/>
<path d="M1172 243 c-16 -6 -43 -58 -35 -67 12 -11 46 -6 64 10 26 24 49 11
49 -28 0 -25 -3 -29 -12 -20 -7 7 -29 12 -49 12 -48 0 -79 -36 -79 -92 0 -49
31 -67 85 -51 20 6 35 7 35 2 0 -5 11 -9 25 -9 33 0 43 27 52 137 5 77 4 87
-12 99 -18 13 -96 18 -123 7z m66 -159 c-5 -26 -34 -40 -52 -25 -22 19 -8 41
26 41 22 0 29 -4 26 -16z"/>
<path d="M1990 237 c-34 -17 -52 -59 -58 -137 -6 -82 7 -95 85 -95 45 0 58 4
74 24 10 13 19 29 19 37 0 17 -43 19 -69 2 -24 -15 -51 -4 -51 22 0 18 6 20
64 20 l63 0 6 35 c8 47 -9 92 -36 99 -35 9 -70 7 -97 -7z m70 -62 c0 -10 -10
-15 -30 -15 -22 0 -28 4 -24 15 4 8 17 15 30 15 15 0 24 -6 24 -15z"/>
<path d="M2203 240 c-32 -13 -54 -63 -60 -140 -5 -65 -5 -68 21 -85 19 -13 39
-16 72 -12 53 6 70 20 83 65 9 31 9 32 -24 32 -25 0 -34 -5 -38 -21 -4 -15
-12 -20 -29 -17 -21 3 -23 8 -20 47 1 24 7 52 13 62 12 23 37 25 45 4 4 -9 19
-15 41 -15 35 0 35 1 29 33 -3 17 -14 38 -23 45 -19 14 -77 15 -110 2z"/>
<path d="M2555 238 c-5 -13 -35 -210 -35 -228 0 -5 13 -10 29 -10 32 0 33 3
47 105 7 55 19 85 34 85 6 0 10 -11 10 -25 0 -21 5 -25 30 -25 29 0 30 1 30
50 0 45 -2 50 -25 56 -18 4 -32 1 -45 -11 -18 -16 -20 -17 -20 -2 0 20 -48 24
-55 5z"/>
<path d="M2735 238 c-5 -13 -35 -210 -35 -228 0 -5 13 -10 30 -10 32 0 29 -11
53 153 8 48 11 89 9 92 -11 10 -53 5 -57 -7z"/>
<path d="M2859 235 c-30 -16 -46 -55 -55 -130 -8 -65 6 -92 50 -101 70 -13
112 11 131 74 6 20 3 22 -28 22 -26 0 -36 -5 -40 -20 -3 -12 -14 -20 -26 -20
-18 0 -21 6 -21 46 0 25 5 54 10 65 13 23 38 25 46 4 4 -9 19 -15 40 -15 30 0
34 3 34 25 0 57 -78 84 -141 50z"/>
</g>
</svg>
