<?xml version="1.0" encoding="UTF-8"?>
<svg xmlns="http://www.w3.org/2000/svg" xmlns:xlink="http://www.w3.org/1999/xlink" width="50px" height="50px" viewBox="0 0 50 50" version="1.1">
<g id="surface1">
<rect x="0" y="0" width="50" height="50" style="fill:rgb(100%,100%,100%);fill-opacity:1;stroke:none;"/>
<path style=" stroke:none;fill-rule:nonzero;fill:rgb(17.647059%,17.647059%,31.764706%);fill-opacity:1;" d="M 38.691406 11.757812 C 44.078125 9.121094 43.710938 7.617188 43.527344 7.269531 C 43.34375 6.921875 42.867188 6.957031 42.867188 6.957031 C 42.390625 5.730469 38.914062 6.957031 38.914062 6.957031 L 28.449219 11.859375 C 27.800781 11.464844 26.402344 12.136719 26.402344 12.136719 C 23.847656 12.285156 8.210938 10.570312 8.210938 10.570312 L 6.992188 9.871094 C 6.800781 9.761719 6.566406 9.765625 6.382812 9.878906 L 6.1875 10 L 7.195312 10.988281 L 14.960938 12.4375 L 14.90625 12.460938 L 16.75 17.566406 L 11.792969 17.234375 C 11.792969 17.234375 10.878906 17.082031 9.632812 17.628906 L 15.78125 18.496094 L 15.605469 18.621094 L 15.605469 19.035156 L 19.292969 19.140625 L 21.089844 19.507812 C 21.089844 19.507812 21.433594 19.507812 21.773438 19.019531 C 23.648438 18.753906 24.898438 18.183594 24.898438 18.183594 L 27.324219 17.054688 C 27.328125 17.054688 27.335938 17.054688 27.339844 17.054688 C 28.25 17.046875 29.375 16.9375 30.34375 16.53125 C 30.933594 16.28125 31.609375 15.902344 32.269531 15.488281 L 32.4375 15.511719 L 32.46875 15.617188 C 32.46875 15.617188 32.128906 15.921875 32.15625 16.117188 C 32.15625 16.117188 32.75 16.207031 33.359375 15.78125 L 33.523438 15.65625 L 33.886719 15.707031 L 33.933594 15.859375 C 33.933594 15.859375 33.59375 16.164062 33.621094 16.359375 C 33.621094 16.359375 34.214844 16.449219 34.824219 16.023438 L 35.035156 15.863281 L 35.386719 15.910156 L 35.4375 16.074219 C 35.4375 16.074219 35.097656 16.378906 35.125 16.574219 C 35.125 16.574219 35.429688 16.617188 35.824219 16.492188 C 35.957031 16.683594 36.191406 16.847656 36.601562 16.828125 C 36.601562 16.828125 37.734375 16.375 38.558594 16.339844 L 41.324219 16.710938 L 42.46875 16.367188 L 41.988281 15.679688 L 41.710938 15.726562 L 41.621094 16.101562 L 40.003906 15.441406 C 40.160156 15.203125 40.234375 14.917969 40.136719 14.582031 C 39.773438 13.339844 38.519531 13.738281 38.519531 13.738281 L 37.097656 14.253906 L 36.714844 14.097656 L 35.367188 13.304688 Z M 42.398438 6.699219 C 42.464844 6.695312 42.53125 6.726562 42.574219 6.777344 L 42.714844 6.933594 L 42.03125 6.933594 L 41.886719 6.707031 Z M 41.613281 6.75 L 41.800781 6.714844 L 41.933594 6.945312 L 41.464844 7.09375 C 41.464844 7.09375 41.601562 6.777344 41.613281 6.75 Z M 41.023438 7.03125 L 41.25 6.824219 L 41.527344 6.75 L 41.351562 7.132812 L 40.882812 7.257812 Z M 18.648438 13.125 C 18.546875 13.222656 18.269531 13.511719 18.296875 13.707031 C 18.296875 13.707031 19 13.816406 19.730469 13.328125 L 19.734375 13.328125 L 20.976562 13.558594 C 20.871094 13.660156 20.601562 13.945312 20.632812 14.136719 C 20.632812 14.136719 21.328125 14.246094 22.058594 13.761719 L 23.472656 14.027344 L 23.238281 14.390625 L 20.652344 15.675781 C 20.621094 15.6875 20.347656 15.789062 19.960938 15.691406 C 19.671875 15.621094 19.417969 15.453125 19.226562 15.226562 L 17.171875 12.851562 Z M 21.417969 16.207031 C 21.421875 16.273438 21.367188 16.332031 21.296875 16.335938 C 21.226562 16.335938 21.171875 16.28125 21.167969 16.210938 L 21.167969 16.0625 C 21.164062 15.992188 21.21875 15.933594 21.289062 15.933594 C 21.359375 15.933594 21.414062 15.988281 21.417969 16.054688 Z M 21.050781 16.367188 C 21.054688 16.4375 21 16.492188 20.929688 16.496094 C 20.859375 16.496094 20.800781 16.441406 20.800781 16.371094 L 20.796875 16.222656 C 20.796875 16.152344 20.851562 16.097656 20.921875 16.09375 C 20.988281 16.09375 21.046875 16.148438 21.046875 16.21875 Z M 20.683594 16.53125 C 20.683594 16.597656 20.628906 16.65625 20.5625 16.65625 C 20.492188 16.660156 20.433594 16.605469 20.433594 16.535156 L 20.429688 16.386719 C 20.429688 16.316406 20.484375 16.257812 20.550781 16.257812 C 20.554688 16.257812 20.554688 16.257812 20.554688 16.257812 C 20.621094 16.257812 20.679688 16.3125 20.679688 16.378906 Z M 20.316406 16.691406 C 20.316406 16.761719 20.261719 16.816406 20.191406 16.820312 C 20.125 16.820312 20.066406 16.765625 20.066406 16.695312 L 20.0625 16.546875 C 20.058594 16.476562 20.113281 16.421875 20.183594 16.417969 C 20.183594 16.417969 20.183594 16.417969 20.1875 16.417969 C 20.253906 16.417969 20.3125 16.472656 20.3125 16.542969 Z M 21.664062 16.171875 C 21.597656 16.171875 21.539062 16.117188 21.539062 16.050781 L 21.535156 15.898438 C 21.53125 15.828125 21.585938 15.773438 21.65625 15.769531 C 21.726562 15.769531 21.78125 15.824219 21.785156 15.894531 L 21.789062 16.042969 C 21.789062 16.113281 21.734375 16.171875 21.664062 16.171875 Z M 22.03125 16.011719 C 21.964844 16.011719 21.90625 15.957031 21.90625 15.886719 L 21.902344 15.738281 C 21.898438 15.667969 21.957031 15.609375 22.023438 15.609375 C 22.023438 15.609375 22.023438 15.609375 22.027344 15.609375 C 22.09375 15.609375 22.148438 15.664062 22.152344 15.730469 L 22.15625 15.882812 C 22.15625 15.949219 22.101562 16.007812 22.03125 16.011719 Z M 22.402344 15.847656 C 22.332031 15.847656 22.273438 15.792969 22.273438 15.726562 L 22.269531 15.574219 C 22.269531 15.507812 22.324219 15.449219 22.390625 15.445312 C 22.394531 15.445312 22.394531 15.445312 22.394531 15.445312 C 22.460938 15.445312 22.519531 15.5 22.519531 15.570312 L 22.523438 15.71875 C 22.523438 15.789062 22.46875 15.847656 22.402344 15.847656 Z M 22.769531 15.6875 C 22.699219 15.6875 22.640625 15.632812 22.640625 15.5625 L 22.636719 15.414062 C 22.636719 15.34375 22.691406 15.285156 22.761719 15.285156 C 22.832031 15.285156 22.886719 15.339844 22.886719 15.40625 L 22.890625 15.558594 C 22.894531 15.628906 22.839844 15.683594 22.769531 15.6875 Z M 23.136719 15.523438 C 23.066406 15.523438 23.011719 15.46875 23.007812 15.402344 L 23.003906 15.25 C 23.003906 15.183594 23.058594 15.125 23.128906 15.121094 C 23.199219 15.121094 23.253906 15.175781 23.257812 15.246094 L 23.257812 15.394531 C 23.261719 15.464844 23.207031 15.523438 23.136719 15.523438 Z M 23.503906 15.363281 C 23.433594 15.363281 23.378906 15.308594 23.378906 15.238281 L 23.375 15.089844 C 23.371094 15.019531 23.425781 14.964844 23.496094 14.960938 C 23.496094 14.960938 23.496094 14.960938 23.5 14.960938 C 23.566406 14.960938 23.621094 15.015625 23.625 15.085938 L 23.628906 15.234375 C 23.628906 15.304688 23.574219 15.359375 23.503906 15.363281 Z M 23.871094 15.199219 C 23.804688 15.199219 23.746094 15.144531 23.746094 15.078125 L 23.742188 14.925781 C 23.738281 14.859375 23.796875 14.800781 23.863281 14.800781 C 23.863281 14.800781 23.863281 14.800781 23.867188 14.800781 C 23.933594 14.800781 23.988281 14.851562 23.992188 14.921875 L 23.996094 15.070312 C 23.996094 15.140625 23.941406 15.199219 23.871094 15.199219 Z M 24.238281 15.039062 C 24.171875 15.039062 24.113281 14.984375 24.113281 14.914062 L 24.109375 14.765625 C 24.109375 14.695312 24.164062 14.640625 24.230469 14.636719 C 24.234375 14.636719 24.234375 14.636719 24.234375 14.636719 C 24.300781 14.636719 24.359375 14.691406 24.359375 14.761719 L 24.363281 14.910156 C 24.363281 14.980469 24.308594 15.035156 24.238281 15.039062 Z M 38.3125 7.832031 L 38.316406 7.832031 C 38.382812 7.832031 38.4375 7.886719 38.4375 7.953125 L 38.441406 8.101562 C 38.441406 8.171875 38.386719 8.230469 38.320312 8.230469 C 38.25 8.234375 38.191406 8.179688 38.191406 8.109375 L 38.1875 7.960938 C 38.1875 7.890625 38.242188 7.832031 38.3125 7.832031 Z M 37.941406 7.992188 L 37.945312 7.992188 C 38.015625 7.992188 38.070312 8.046875 38.070312 8.113281 L 38.074219 8.265625 C 38.074219 8.335938 38.019531 8.390625 37.953125 8.394531 C 37.882812 8.394531 37.824219 8.339844 37.824219 8.269531 L 37.820312 8.121094 C 37.820312 8.050781 37.875 7.992188 37.941406 7.992188 Z M 37.574219 8.15625 L 37.578125 8.15625 C 37.644531 8.15625 37.703125 8.210938 37.703125 8.277344 L 37.707031 8.425781 C 37.707031 8.496094 37.652344 8.554688 37.582031 8.554688 C 37.515625 8.558594 37.457031 8.503906 37.457031 8.433594 L 37.453125 8.28125 C 37.453125 8.214844 37.507812 8.15625 37.574219 8.15625 Z M 37.207031 8.316406 L 37.210938 8.316406 C 37.277344 8.316406 37.332031 8.371094 37.335938 8.4375 L 37.339844 8.589844 C 37.339844 8.660156 37.285156 8.714844 37.214844 8.71875 C 37.144531 8.71875 37.089844 8.664062 37.089844 8.59375 L 37.085938 8.445312 C 37.082031 8.375 37.136719 8.316406 37.207031 8.316406 Z M 36.839844 8.480469 L 36.84375 8.480469 C 36.910156 8.480469 36.964844 8.53125 36.96875 8.601562 L 36.96875 8.75 C 36.972656 8.820312 36.917969 8.878906 36.847656 8.878906 C 36.777344 8.882812 36.722656 8.824219 36.71875 8.757812 L 36.714844 8.605469 C 36.714844 8.535156 36.769531 8.480469 36.839844 8.480469 Z M 36.472656 8.640625 L 36.476562 8.640625 C 36.542969 8.640625 36.597656 8.695312 36.597656 8.761719 L 36.601562 8.914062 C 36.605469 8.984375 36.550781 9.039062 36.480469 9.039062 C 36.410156 9.042969 36.351562 8.988281 36.351562 8.917969 L 36.347656 8.769531 C 36.347656 8.699219 36.402344 8.640625 36.472656 8.640625 Z M 36.101562 8.804688 L 36.105469 8.804688 C 36.175781 8.804688 36.230469 8.855469 36.230469 8.925781 L 36.234375 9.074219 C 36.234375 9.144531 36.179688 9.203125 36.113281 9.203125 C 36.042969 9.203125 35.984375 9.148438 35.984375 9.082031 L 35.980469 8.929688 C 35.980469 8.859375 36.035156 8.804688 36.101562 8.804688 Z M 35.734375 8.964844 L 35.738281 8.964844 C 35.804688 8.964844 35.859375 9.019531 35.863281 9.085938 L 35.867188 9.238281 C 35.867188 9.308594 35.8125 9.363281 35.746094 9.363281 C 35.675781 9.367188 35.617188 9.3125 35.617188 9.242188 L 35.613281 9.09375 C 35.609375 9.023438 35.667969 8.964844 35.734375 8.964844 Z M 35.367188 9.128906 L 35.371094 9.128906 C 35.4375 9.128906 35.492188 9.179688 35.496094 9.25 L 35.5 9.398438 C 35.5 9.46875 35.445312 9.527344 35.375 9.527344 C 35.308594 9.527344 35.25 9.472656 35.25 9.40625 L 35.246094 9.253906 C 35.242188 9.183594 35.296875 9.128906 35.367188 9.128906 Z M 35 9.289062 L 35.003906 9.289062 C 35.070312 9.289062 35.125 9.34375 35.128906 9.410156 L 35.128906 9.5625 C 35.132812 9.632812 35.078125 9.6875 35.007812 9.6875 C 34.9375 9.691406 34.882812 9.636719 34.878906 9.566406 L 34.878906 9.417969 C 34.875 9.347656 34.929688 9.289062 35 9.289062 Z M 34.632812 9.449219 L 34.636719 9.449219 C 34.703125 9.449219 34.757812 9.503906 34.757812 9.574219 L 34.761719 9.722656 C 34.765625 9.792969 34.710938 9.851562 34.640625 9.851562 C 34.570312 9.851562 34.511719 9.796875 34.511719 9.730469 L 34.507812 9.578125 C 34.507812 9.507812 34.5625 9.453125 34.632812 9.449219 Z M 34.261719 9.613281 L 34.265625 9.613281 C 34.335938 9.613281 34.390625 9.667969 34.390625 9.734375 L 34.394531 9.886719 C 34.394531 9.953125 34.339844 10.011719 34.273438 10.011719 C 34.203125 10.015625 34.144531 9.960938 34.144531 9.890625 L 34.140625 9.742188 C 34.140625 9.671875 34.195312 9.613281 34.261719 9.613281 Z M 34.261719 9.613281 "/>
<path style=" stroke:none;fill-rule:nonzero;fill:rgb(17.647059%,17.647059%,31.764706%);fill-opacity:1;" d="M 43.878906 20.269531 L 44.925781 18.945312 L 44.464844 18.847656 L 42.609375 19.980469 L 34.390625 21.902344 C 31.746094 22.59375 23.304688 23.914062 23.304688 23.914062 L 13.050781 21.195312 C 9.796875 20.28125 7.933594 20.429688 7.933594 20.429688 C 5.996094 20.40625 5.792969 21.195312 5.792969 21.195312 C 5.019531 21.21875 4.894531 21.761719 4.894531 21.761719 C 4.628906 22.871094 6.957031 24.019531 8.296875 24.582031 C 8.40625 24.898438 8.621094 25.261719 9.027344 25.386719 L 9.027344 25.757812 C 9.015625 25.765625 9.003906 25.777344 8.992188 25.789062 C 8.976562 25.785156 8.957031 25.78125 8.9375 25.78125 C 8.6875 25.78125 8.488281 25.984375 8.488281 26.230469 C 8.488281 26.476562 8.6875 26.675781 8.9375 26.675781 C 9.0625 26.675781 9.179688 26.621094 9.261719 26.535156 C 9.277344 26.539062 9.296875 26.542969 9.316406 26.542969 C 9.566406 26.542969 9.765625 26.34375 9.765625 26.097656 C 9.765625 25.847656 9.566406 25.648438 9.316406 25.648438 L 9.316406 24.964844 L 13.789062 26.09375 C 13.949219 26.175781 14.160156 26.277344 14.40625 26.394531 L 13.796875 27.132812 C 13.796875 27.132812 12.261719 26.652344 11.214844 26.765625 C 11.214844 26.765625 10.5 26.726562 10.332031 27.738281 C 10.164062 28.753906 10.855469 29.089844 11.082031 29.128906 L 10.625 29.445312 C 10.558594 29.492188 10.570312 29.597656 10.648438 29.628906 C 10.675781 29.636719 10.707031 29.636719 10.734375 29.621094 L 11.003906 29.476562 C 11.003906 29.476562 11.863281 29.632812 12.53125 29.453125 C 12.53125 29.453125 13.503906 29.699219 13.859375 29.152344 L 14.550781 29.152344 L 14.660156 29.085938 C 14.660156 29.085938 15.050781 29.585938 15.851562 29.816406 C 15.929688 29.839844 16.011719 29.804688 16.042969 29.730469 C 16.0625 29.675781 16.054688 29.617188 16.023438 29.570312 L 15.722656 29.183594 L 16.078125 29.0625 C 16.078125 29.0625 16.589844 29.507812 17.109375 29.539062 C 17.179688 29.542969 17.246094 29.496094 17.273438 29.429688 C 17.292969 29.375 17.28125 29.3125 17.242188 29.269531 L 16.847656 28.792969 L 17.191406 28.726562 C 17.191406 28.726562 17.675781 29.136719 18.292969 29.210938 C 18.429688 29.394531 18.625 29.542969 18.898438 29.535156 L 18.902344 29.539062 C 18.796875 29.597656 18.710938 29.6875 18.667969 29.800781 C 18.582031 29.734375 18.472656 29.691406 18.355469 29.691406 C 18.070312 29.691406 17.839844 29.921875 17.839844 30.207031 C 17.839844 30.492188 18.070312 30.722656 18.355469 30.722656 C 18.574219 30.722656 18.757812 30.585938 18.835938 30.394531 C 18.898438 30.441406 18.972656 30.476562 19.058594 30.492188 L 19.097656 30.738281 C 18.949219 30.828125 18.847656 30.988281 18.847656 31.175781 C 18.847656 31.460938 19.078125 31.691406 19.363281 31.691406 C 19.578125 31.691406 19.765625 31.554688 19.839844 31.359375 C 19.925781 31.429688 20.035156 31.46875 20.152344 31.46875 C 20.4375 31.46875 20.667969 31.238281 20.667969 30.957031 C 20.667969 30.671875 20.4375 30.441406 20.152344 30.441406 C 19.933594 30.441406 19.75 30.578125 19.675781 30.769531 C 19.609375 30.71875 19.535156 30.683594 19.453125 30.671875 L 19.421875 30.421875 C 19.566406 30.328125 19.660156 30.171875 19.660156 29.988281 C 19.660156 29.757812 19.511719 29.566406 19.300781 29.5 L 19.222656 28.878906 L 19.714844 29.039062 L 19.757812 28.878906 L 19.316406 28.332031 C 20.058594 28.550781 20.800781 28.722656 21.503906 28.820312 C 21.503906 28.820312 22.742188 28.953125 23.84375 28.824219 C 23.9375 28.941406 24.082031 29.019531 24.246094 29.019531 C 24.402344 29.019531 24.542969 28.949219 24.636719 28.835938 C 24.796875 28.886719 24.953125 28.9375 25.113281 28.980469 C 24.898438 29.042969 24.738281 29.238281 24.738281 29.472656 C 24.738281 29.757812 24.96875 29.988281 25.253906 29.988281 C 25.472656 29.988281 25.65625 29.851562 25.730469 29.660156 C 25.820312 29.726562 25.925781 29.769531 26.046875 29.769531 C 26.308594 29.769531 26.519531 29.570312 26.554688 29.316406 C 29.832031 29.925781 33.085938 29.550781 34.019531 29.246094 C 34.929688 28.945312 36.726562 28.769531 37.378906 28.714844 C 37.523438 28.699219 37.648438 28.597656 37.6875 28.457031 C 37.730469 28.304688 37.671875 28.144531 37.539062 28.058594 L 37.4375 27.992188 L 43.257812 26.28125 C 43.257812 26.28125 42.398438 25.953125 39.527344 26.71875 L 36.691406 27.359375 L 37.910156 22.511719 Z M 6.773438 20.886719 L 6.613281 21.117188 C 6.609375 21.121094 6.605469 21.125 6.597656 21.128906 L 5.996094 21.171875 C 5.976562 21.171875 5.964844 21.144531 5.976562 21.128906 L 6.183594 20.898438 C 6.1875 20.894531 6.195312 20.890625 6.199219 20.890625 L 6.753906 20.847656 C 6.773438 20.847656 6.785156 20.867188 6.773438 20.886719 Z M 7.285156 21.230469 L 6.921875 21.164062 C 6.828125 21.148438 6.78125 21.039062 6.835938 20.957031 L 6.902344 20.855469 C 6.90625 20.847656 6.914062 20.84375 6.921875 20.84375 L 7.148438 20.84375 C 7.160156 20.84375 7.167969 20.847656 7.171875 20.859375 L 7.3125 21.199219 C 7.320312 21.21875 7.304688 21.234375 7.285156 21.230469 Z M 7.898438 21.324219 L 7.480469 21.257812 C 7.472656 21.257812 7.46875 21.253906 7.464844 21.246094 L 7.300781 20.878906 C 7.296875 20.863281 7.304688 20.84375 7.324219 20.84375 L 7.515625 20.84375 C 7.519531 20.84375 7.523438 20.84375 7.527344 20.847656 L 7.800781 21.039062 C 7.804688 21.039062 7.804688 21.042969 7.808594 21.046875 L 7.925781 21.289062 C 7.933594 21.304688 7.921875 21.324219 7.898438 21.324219 Z M 10.929688 28.820312 C 10.65625 28.820312 10.4375 28.441406 10.4375 27.96875 C 10.4375 27.5 10.65625 27.121094 10.929688 27.121094 C 11.199219 27.121094 11.417969 27.5 11.417969 27.96875 C 11.417969 28.441406 11.199219 28.820312 10.929688 28.820312 Z M 12.25 22.214844 C 12.179688 22.226562 12.109375 22.179688 12.097656 22.105469 L 12.070312 21.949219 C 12.070312 21.941406 12.066406 21.933594 12.066406 21.925781 C 12.066406 21.863281 12.113281 21.808594 12.175781 21.796875 C 12.25 21.785156 12.316406 21.832031 12.328125 21.902344 L 12.359375 22.058594 C 12.371094 22.132812 12.320312 22.199219 12.25 22.214844 Z M 12.664062 22.308594 C 12.59375 22.320312 12.523438 22.269531 12.511719 22.199219 L 12.484375 22.042969 C 12.484375 22.035156 12.480469 22.027344 12.480469 22.019531 C 12.480469 21.957031 12.527344 21.902344 12.59375 21.890625 C 12.664062 21.878906 12.730469 21.925781 12.746094 21.996094 L 12.773438 22.152344 C 12.785156 22.226562 12.734375 22.292969 12.664062 22.308594 Z M 13.078125 22.398438 C 13.007812 22.410156 12.9375 22.363281 12.925781 22.292969 L 12.898438 22.136719 C 12.898438 22.128906 12.898438 22.121094 12.898438 22.113281 C 12.898438 22.050781 12.941406 21.992188 13.007812 21.984375 C 13.078125 21.96875 13.148438 22.019531 13.160156 22.089844 L 13.1875 22.246094 C 13.199219 22.320312 13.152344 22.386719 13.078125 22.398438 Z M 13.492188 22.492188 C 13.421875 22.503906 13.351562 22.457031 13.339844 22.386719 L 13.3125 22.230469 C 13.3125 22.222656 13.3125 22.214844 13.3125 22.207031 C 13.3125 22.144531 13.355469 22.085938 13.421875 22.074219 C 13.492188 22.0625 13.5625 22.113281 13.574219 22.183594 L 13.601562 22.339844 C 13.613281 22.410156 13.566406 22.480469 13.492188 22.492188 Z M 13.90625 22.585938 C 13.835938 22.597656 13.765625 22.550781 13.753906 22.476562 L 13.726562 22.320312 C 13.726562 22.3125 13.726562 22.304688 13.726562 22.296875 C 13.726562 22.234375 13.769531 22.179688 13.835938 22.167969 C 13.90625 22.15625 13.976562 22.203125 13.988281 22.277344 L 14.015625 22.433594 C 14.027344 22.503906 13.980469 22.574219 13.90625 22.585938 Z M 14.320312 22.679688 C 14.25 22.691406 14.183594 22.644531 14.167969 22.570312 L 14.140625 22.414062 C 14.140625 22.40625 14.140625 22.398438 14.140625 22.394531 C 14.140625 22.328125 14.183594 22.273438 14.25 22.261719 C 14.320312 22.25 14.390625 22.296875 14.402344 22.371094 L 14.429688 22.527344 C 14.441406 22.597656 14.394531 22.667969 14.320312 22.679688 Z M 14.738281 22.773438 C 14.664062 22.785156 14.597656 22.738281 14.585938 22.664062 L 14.554688 22.507812 C 14.554688 22.5 14.554688 22.492188 14.554688 22.484375 C 14.554688 22.421875 14.597656 22.367188 14.664062 22.355469 C 14.734375 22.34375 14.804688 22.390625 14.816406 22.464844 L 14.84375 22.621094 C 14.855469 22.691406 14.808594 22.761719 14.738281 22.773438 Z M 15.152344 22.867188 C 15.078125 22.878906 15.011719 22.828125 14.996094 22.757812 L 14.972656 22.601562 C 14.96875 22.59375 14.96875 22.585938 14.96875 22.578125 C 14.96875 22.515625 15.015625 22.460938 15.078125 22.449219 C 15.152344 22.4375 15.21875 22.484375 15.230469 22.554688 L 15.257812 22.714844 C 15.269531 22.785156 15.222656 22.851562 15.152344 22.867188 Z M 15.566406 22.960938 C 15.492188 22.972656 15.425781 22.921875 15.414062 22.851562 L 15.386719 22.695312 C 15.382812 22.6875 15.382812 22.679688 15.382812 22.671875 C 15.382812 22.609375 15.429688 22.554688 15.492188 22.542969 C 15.566406 22.527344 15.632812 22.578125 15.644531 22.648438 L 15.671875 22.804688 C 15.6875 22.878906 15.636719 22.945312 15.566406 22.960938 Z M 15.980469 23.050781 C 15.90625 23.066406 15.839844 23.015625 15.828125 22.945312 L 15.800781 22.789062 C 15.800781 22.78125 15.796875 22.773438 15.796875 22.765625 C 15.796875 22.703125 15.84375 22.648438 15.90625 22.636719 C 15.980469 22.621094 16.046875 22.671875 16.0625 22.742188 L 16.089844 22.898438 C 16.101562 22.972656 16.050781 23.039062 15.980469 23.050781 Z M 16.394531 23.144531 C 16.320312 23.15625 16.253906 23.109375 16.242188 23.039062 L 16.214844 22.882812 C 16.214844 22.875 16.210938 22.867188 16.210938 22.859375 C 16.210938 22.796875 16.257812 22.738281 16.320312 22.726562 C 16.394531 22.714844 16.460938 22.765625 16.476562 22.835938 L 16.503906 22.992188 C 16.515625 23.0625 16.464844 23.132812 16.394531 23.144531 Z M 16.808594 23.238281 C 16.738281 23.25 16.667969 23.203125 16.65625 23.132812 L 16.628906 22.976562 C 16.628906 22.96875 16.628906 22.960938 16.628906 22.949219 C 16.628906 22.886719 16.671875 22.832031 16.734375 22.820312 C 16.808594 22.808594 16.878906 22.855469 16.890625 22.929688 L 16.917969 23.085938 C 16.929688 23.15625 16.882812 23.226562 16.808594 23.238281 Z M 28.230469 26.410156 C 28.160156 26.421875 28.089844 26.375 28.078125 26.304688 L 28.050781 26.144531 C 28.050781 26.140625 28.050781 26.132812 28.050781 26.125 C 28.050781 26.0625 28.09375 26.003906 28.160156 25.992188 C 28.230469 25.980469 28.300781 26.027344 28.3125 26.101562 L 28.339844 26.257812 C 28.351562 26.328125 28.304688 26.398438 28.230469 26.410156 Z M 28.644531 26.503906 C 28.574219 26.515625 28.503906 26.46875 28.492188 26.394531 L 28.464844 26.238281 C 28.464844 26.230469 28.464844 26.222656 28.464844 26.214844 C 28.464844 26.152344 28.507812 26.097656 28.574219 26.085938 C 28.644531 26.074219 28.714844 26.121094 28.726562 26.195312 L 28.753906 26.351562 C 28.765625 26.421875 28.71875 26.492188 28.644531 26.503906 Z M 29.058594 26.597656 C 28.988281 26.609375 28.921875 26.5625 28.90625 26.488281 L 28.878906 26.332031 C 28.878906 26.324219 28.878906 26.316406 28.878906 26.308594 C 28.878906 26.246094 28.925781 26.191406 28.988281 26.179688 C 29.058594 26.167969 29.128906 26.214844 29.140625 26.285156 L 29.167969 26.445312 C 29.179688 26.515625 29.132812 26.585938 29.058594 26.597656 Z M 29.476562 26.691406 C 29.402344 26.703125 29.335938 26.652344 29.320312 26.582031 L 29.292969 26.425781 C 29.292969 26.417969 29.292969 26.410156 29.292969 26.402344 C 29.292969 26.339844 29.335938 26.285156 29.402344 26.273438 C 29.472656 26.261719 29.542969 26.308594 29.554688 26.382812 L 29.582031 26.535156 C 29.59375 26.609375 29.546875 26.679688 29.476562 26.691406 Z M 29.890625 26.78125 C 29.816406 26.796875 29.75 26.746094 29.734375 26.675781 L 29.710938 26.519531 C 29.707031 26.511719 29.707031 26.503906 29.707031 26.496094 C 29.707031 26.433594 29.753906 26.378906 29.816406 26.367188 C 29.890625 26.355469 29.957031 26.402344 29.96875 26.472656 L 29.996094 26.628906 C 30.007812 26.703125 29.960938 26.769531 29.890625 26.78125 Z M 30.304688 26.875 C 30.230469 26.890625 30.164062 26.839844 30.152344 26.769531 L 30.121094 26.613281 C 30.121094 26.605469 30.121094 26.597656 30.121094 26.589844 C 30.121094 26.527344 30.164062 26.472656 30.230469 26.460938 C 30.304688 26.445312 30.371094 26.496094 30.382812 26.566406 L 30.410156 26.722656 C 30.425781 26.796875 30.375 26.863281 30.304688 26.875 Z M 30.71875 26.96875 C 30.644531 26.980469 30.578125 26.933594 30.566406 26.863281 L 30.539062 26.707031 C 30.535156 26.699219 30.535156 26.691406 30.535156 26.683594 C 30.535156 26.621094 30.582031 26.5625 30.644531 26.554688 C 30.71875 26.539062 30.785156 26.589844 30.800781 26.660156 L 30.824219 26.816406 C 30.839844 26.890625 30.789062 26.957031 30.71875 26.96875 Z M 31.132812 27.0625 C 31.058594 27.074219 30.992188 27.027344 30.980469 26.953125 L 30.953125 26.800781 C 30.949219 26.792969 30.949219 26.785156 30.949219 26.777344 C 30.949219 26.714844 30.996094 26.65625 31.058594 26.644531 C 31.132812 26.632812 31.199219 26.679688 31.214844 26.753906 L 31.238281 26.910156 C 31.253906 26.980469 31.203125 27.050781 31.132812 27.0625 Z M 31.546875 27.15625 C 31.476562 27.167969 31.40625 27.121094 31.394531 27.046875 L 31.367188 26.890625 C 31.367188 26.882812 31.363281 26.875 31.363281 26.867188 C 31.363281 26.804688 31.410156 26.75 31.472656 26.738281 C 31.546875 26.726562 31.613281 26.773438 31.628906 26.847656 L 31.65625 27.003906 C 31.667969 27.074219 31.617188 27.144531 31.546875 27.15625 Z M 31.960938 27.25 C 31.890625 27.261719 31.820312 27.214844 31.808594 27.140625 L 31.78125 26.984375 C 31.78125 26.976562 31.777344 26.96875 31.777344 26.964844 C 31.777344 26.898438 31.824219 26.84375 31.890625 26.832031 C 31.960938 26.820312 32.027344 26.867188 32.042969 26.941406 L 32.070312 27.097656 C 32.082031 27.167969 32.03125 27.238281 31.960938 27.25 Z M 32.375 27.34375 C 32.304688 27.355469 32.234375 27.308594 32.222656 27.234375 L 32.195312 27.078125 C 32.195312 27.070312 32.195312 27.0625 32.195312 27.054688 C 32.195312 26.992188 32.238281 26.9375 32.304688 26.925781 C 32.375 26.914062 32.445312 26.960938 32.457031 27.03125 L 32.484375 27.191406 C 32.496094 27.261719 32.449219 27.328125 32.375 27.34375 Z M 32.789062 27.4375 C 32.71875 27.449219 32.648438 27.398438 32.636719 27.328125 L 32.609375 27.171875 C 32.609375 27.164062 32.609375 27.15625 32.609375 27.148438 C 32.609375 27.085938 32.652344 27.03125 32.71875 27.019531 C 32.789062 27.007812 32.859375 27.054688 32.871094 27.125 L 32.898438 27.28125 C 32.910156 27.355469 32.863281 27.421875 32.789062 27.4375 Z M 34.082031 23.988281 C 32.566406 26.15625 31.34375 26.046875 31.34375 26.046875 L 28.945312 25.410156 L 29.785156 25.164062 L 30.148438 25.382812 C 30.355469 25.503906 30.699219 25.644531 30.882812 25.714844 C 30.949219 25.738281 31.023438 25.710938 31.054688 25.644531 C 31.078125 25.597656 31.070312 25.542969 31.039062 25.5 L 30.597656 24.921875 L 31.984375 24.511719 L 32.300781 24.699219 C 32.507812 24.824219 32.855469 24.964844 33.035156 25.03125 C 33.101562 25.058594 33.179688 25.027344 33.210938 24.960938 C 33.230469 24.914062 33.226562 24.859375 33.195312 24.820312 L 32.777344 24.277344 L 34.183594 23.859375 Z M 34.082031 23.988281 "/>
<path style=" stroke:none;fill-rule:nonzero;fill:rgb(17.647059%,17.647059%,31.764706%);fill-opacity:1;" d="M 39.792969 37.726562 C 41.832031 37.097656 44.511719 35.984375 44.269531 34.523438 C 44.269531 34.523438 44.113281 33.648438 42.792969 33.570312 C 42.792969 33.570312 42.085938 32.488281 40.464844 32.390625 C 40.464844 32.390625 38.707031 32.152344 31.699219 34.285156 L 22.953125 36.6875 L 14.15625 35.140625 C 14.101562 35.050781 14.042969 34.960938 13.984375 34.863281 L 13.203125 33.636719 C 12.875 33.121094 12.242188 32.890625 11.65625 33.070312 L 10.878906 33.3125 L 11.160156 34.613281 L 7.953125 34.046875 L 7.203125 33.101562 C 7.03125 32.890625 6.800781 32.738281 6.542969 32.664062 C 6.433594 32.632812 6.316406 32.617188 6.195312 32.617188 L 5.863281 32.617188 L 6.632812 34.027344 C 6.929688 34.570312 7.433594 34.976562 8.027344 35.15625 L 11.492188 36.179688 L 12.3125 40.007812 L 11.988281 40.179688 C 11.988281 40.179688 8.667969 39.511719 6.714844 39.511719 C 6.183594 39.511719 5.75 39.5625 5.515625 39.691406 L 10.609375 40.917969 C 10.410156 41.046875 10.324219 41.296875 10.410156 41.527344 C 10.46875 41.679688 10.605469 41.792969 10.765625 41.839844 C 11.867188 42.164062 15.78125 43.167969 20.195312 42.535156 C 20.835938 42.445312 21.65625 42.289062 22.589844 42.09375 C 22.589844 42.21875 22.625 42.351562 22.71875 42.484375 C 22.867188 42.691406 23.109375 42.816406 23.363281 42.789062 C 23.519531 42.773438 23.65625 42.703125 23.761719 42.605469 C 23.898438 42.875 24.207031 43.039062 24.53125 42.96875 C 24.835938 42.90625 25.066406 42.632812 25.078125 42.320312 C 25.089844 42.003906 24.898438 41.742188 24.632812 41.640625 C 24.726562 41.617188 24.820312 41.597656 24.914062 41.574219 C 26.609375 41.816406 28.59375 41.199219 28.59375 41.199219 L 30.40625 41.113281 L 30.140625 41.578125 C 30.121094 41.609375 30.121094 41.648438 30.136719 41.679688 C 30.164062 41.734375 30.226562 41.753906 30.28125 41.730469 L 30.730469 41.523438 L 30.617188 42.539062 C 30.492188 42.441406 30.332031 42.386719 30.160156 42.394531 C 29.773438 42.414062 29.46875 42.761719 29.5 43.148438 C 29.53125 43.535156 29.875 43.820312 30.261719 43.785156 C 30.417969 43.769531 30.558594 43.699219 30.667969 43.597656 C 30.796875 43.847656 31.066406 44.007812 31.363281 43.976562 C 31.730469 43.9375 32.011719 43.597656 31.984375 43.226562 C 31.953125 42.839844 31.609375 42.554688 31.222656 42.589844 C 31.1875 42.59375 31.152344 42.601562 31.117188 42.609375 L 31.378906 41.820312 L 31.921875 41.554688 L 31.835938 41.050781 L 32.808594 41.15625 C 32.378906 41.496094 32.554688 41.730469 32.554688 41.730469 C 33.101562 41.640625 33.601562 41.183594 33.601562 41.183594 L 34.074219 41.199219 L 33.835938 41.476562 C 33.769531 41.550781 33.808594 41.667969 33.90625 41.691406 L 34.160156 41.746094 C 34.382812 42.128906 34.691406 41.980469 34.691406 41.980469 L 34.941406 42.261719 L 34.691406 42.421875 C 34.839844 42.503906 35.03125 42.546875 35.214844 42.570312 C 35.53125 42.605469 35.851562 42.574219 36.164062 42.496094 L 38.417969 41.90625 C 38.417969 41.90625 39.414062 41.625 39.417969 40.558594 C 39.558594 40.578125 39.703125 40.558594 39.871094 40.359375 C 39.953125 40.261719 40 40.140625 39.988281 40.015625 C 39.960938 39.742188 39.71875 39.542969 39.445312 39.566406 C 39.394531 39.574219 39.347656 39.585938 39.304688 39.605469 L 39.207031 38.347656 C 39.585938 38.320312 39.734375 37.984375 39.792969 37.726562 Z M 15.378906 40 L 15.355469 40.183594 C 15.347656 40.265625 15.269531 40.328125 15.1875 40.316406 C 15.101562 40.308594 15.042969 40.230469 15.050781 40.148438 L 15.074219 39.960938 C 15.082031 39.878906 15.160156 39.820312 15.242188 39.828125 C 15.320312 39.835938 15.378906 39.902344 15.378906 39.980469 C 15.378906 39.988281 15.378906 39.992188 15.378906 40 Z M 15.855469 39.863281 L 15.832031 40.046875 C 15.820312 40.132812 15.746094 40.191406 15.660156 40.183594 C 15.578125 40.171875 15.515625 40.097656 15.527344 40.011719 L 15.546875 39.828125 C 15.558594 39.746094 15.632812 39.683594 15.71875 39.695312 C 15.796875 39.703125 15.855469 39.769531 15.855469 39.847656 C 15.855469 39.851562 15.855469 39.859375 15.855469 39.863281 Z M 16.328125 39.730469 L 16.308594 39.914062 C 16.296875 39.996094 16.21875 40.058594 16.136719 40.046875 C 16.050781 40.039062 15.992188 39.960938 16 39.878906 L 16.023438 39.695312 C 16.035156 39.609375 16.109375 39.550781 16.195312 39.558594 C 16.273438 39.570312 16.328125 39.632812 16.328125 39.710938 C 16.328125 39.71875 16.328125 39.722656 16.328125 39.730469 Z M 16.804688 39.59375 L 16.78125 39.777344 C 16.773438 39.863281 16.695312 39.921875 16.613281 39.914062 C 16.527344 39.902344 16.464844 39.828125 16.476562 39.742188 L 16.5 39.558594 C 16.507812 39.472656 16.585938 39.414062 16.667969 39.425781 C 16.746094 39.433594 16.804688 39.5 16.804688 39.578125 C 16.804688 39.582031 16.804688 39.589844 16.804688 39.59375 Z M 17.28125 39.460938 L 17.257812 39.644531 C 17.246094 39.726562 17.171875 39.789062 17.085938 39.777344 C 17.003906 39.769531 16.941406 39.691406 16.953125 39.609375 L 16.972656 39.425781 C 16.984375 39.339844 17.0625 39.28125 17.144531 39.289062 C 17.222656 39.300781 17.28125 39.367188 17.28125 39.441406 C 17.28125 39.449219 17.28125 39.453125 17.28125 39.460938 Z M 17.753906 39.328125 L 17.734375 39.507812 C 17.722656 39.59375 17.648438 39.65625 17.5625 39.644531 C 17.476562 39.632812 17.417969 39.558594 17.425781 39.472656 L 17.449219 39.289062 C 17.460938 39.207031 17.535156 39.144531 17.621094 39.15625 C 17.699219 39.164062 17.753906 39.230469 17.753906 39.308594 C 17.753906 39.316406 17.753906 39.320312 17.753906 39.328125 Z M 17.183594 38.273438 C 17.183594 38.273438 16.832031 38.539062 15.851562 37.472656 L 17.894531 38.078125 Z M 18.230469 39.191406 L 18.207031 39.375 C 18.199219 39.460938 18.121094 39.519531 18.039062 39.507812 C 17.953125 39.5 17.894531 39.421875 17.902344 39.339844 L 17.925781 39.15625 C 17.933594 39.070312 18.011719 39.011719 18.09375 39.023438 C 18.171875 39.03125 18.230469 39.097656 18.230469 39.171875 C 18.230469 39.179688 18.230469 39.183594 18.230469 39.191406 Z M 18.707031 39.058594 L 18.683594 39.242188 C 18.671875 39.324219 18.597656 39.386719 18.511719 39.375 C 18.429688 39.367188 18.367188 39.289062 18.378906 39.203125 L 18.398438 39.023438 C 18.410156 38.9375 18.488281 38.875 18.570312 38.886719 C 18.648438 38.894531 18.707031 38.960938 18.707031 39.039062 C 18.707031 39.046875 18.707031 39.050781 18.707031 39.058594 Z M 19.179688 38.921875 L 19.160156 39.105469 C 19.148438 39.191406 19.074219 39.25 18.988281 39.242188 C 18.902344 39.230469 18.84375 39.15625 18.855469 39.070312 L 18.875 38.886719 C 18.882812 38.800781 18.960938 38.742188 19.046875 38.75 C 19.125 38.761719 19.183594 38.828125 19.183594 38.90625 C 19.183594 38.910156 19.183594 38.917969 19.179688 38.921875 Z M 30.585938 35.835938 L 30.566406 36.019531 C 30.554688 36.101562 30.476562 36.164062 30.394531 36.152344 C 30.308594 36.144531 30.25 36.066406 30.257812 35.984375 L 30.28125 35.800781 C 30.289062 35.714844 30.367188 35.65625 30.449219 35.664062 C 30.53125 35.671875 30.585938 35.742188 30.585938 35.816406 C 30.585938 35.824219 30.585938 35.828125 30.585938 35.835938 Z M 31.0625 35.699219 L 31.039062 35.882812 C 31.03125 35.96875 30.953125 36.027344 30.867188 36.019531 C 30.785156 36.007812 30.722656 35.933594 30.734375 35.847656 L 30.753906 35.664062 C 30.765625 35.582031 30.839844 35.519531 30.925781 35.53125 C 31.003906 35.539062 31.0625 35.605469 31.0625 35.683594 C 31.0625 35.6875 31.0625 35.695312 31.0625 35.699219 Z M 31.535156 35.566406 L 31.515625 35.75 C 31.503906 35.835938 31.429688 35.894531 31.34375 35.882812 C 31.257812 35.875 31.199219 35.796875 31.210938 35.714844 L 31.230469 35.53125 C 31.242188 35.445312 31.316406 35.386719 31.402344 35.394531 C 31.480469 35.40625 31.539062 35.46875 31.539062 35.546875 C 31.539062 35.554688 31.539062 35.558594 31.535156 35.566406 Z M 32.011719 35.429688 L 31.988281 35.617188 C 31.980469 35.699219 31.902344 35.757812 31.820312 35.75 C 31.734375 35.738281 31.675781 35.664062 31.683594 35.578125 L 31.707031 35.394531 C 31.714844 35.3125 31.792969 35.25 31.875 35.261719 C 31.957031 35.269531 32.011719 35.335938 32.011719 35.414062 C 32.011719 35.417969 32.011719 35.425781 32.011719 35.429688 Z M 32.488281 35.296875 L 32.464844 35.480469 C 32.457031 35.566406 32.378906 35.625 32.292969 35.617188 C 32.210938 35.605469 32.148438 35.53125 32.160156 35.445312 L 32.183594 35.261719 C 32.191406 35.175781 32.269531 35.117188 32.351562 35.125 C 32.429688 35.136719 32.488281 35.203125 32.488281 35.28125 C 32.488281 35.285156 32.488281 35.292969 32.488281 35.296875 Z M 32.960938 35.164062 L 32.941406 35.347656 C 32.929688 35.429688 32.855469 35.492188 32.769531 35.480469 C 32.6875 35.46875 32.625 35.394531 32.632812 35.308594 L 32.65625 35.125 C 32.667969 35.042969 32.742188 34.984375 32.828125 34.992188 C 32.90625 35 32.964844 35.066406 32.964844 35.144531 C 32.964844 35.152344 32.964844 35.15625 32.960938 35.164062 Z M 33.4375 35.027344 L 33.414062 35.210938 C 33.40625 35.296875 33.328125 35.355469 33.246094 35.347656 C 33.160156 35.335938 33.101562 35.257812 33.109375 35.175781 L 33.132812 34.992188 C 33.140625 34.90625 33.21875 34.847656 33.300781 34.859375 C 33.378906 34.867188 33.4375 34.933594 33.4375 35.011719 C 33.4375 35.015625 33.4375 35.023438 33.4375 35.027344 Z M 33.914062 34.894531 L 33.890625 35.078125 C 33.882812 35.160156 33.804688 35.222656 33.71875 35.210938 C 33.636719 35.203125 33.574219 35.125 33.585938 35.042969 L 33.609375 34.859375 C 33.617188 34.773438 33.695312 34.714844 33.777344 34.722656 C 33.855469 34.730469 33.914062 34.796875 33.914062 34.875 C 33.914062 34.882812 33.914062 34.886719 33.914062 34.894531 Z M 34.386719 34.757812 L 34.367188 34.941406 C 34.355469 35.027344 34.28125 35.085938 34.195312 35.078125 C 34.113281 35.066406 34.050781 34.992188 34.0625 34.90625 L 34.082031 34.722656 C 34.09375 34.636719 34.167969 34.578125 34.253906 34.589844 C 34.332031 34.597656 34.390625 34.664062 34.390625 34.742188 C 34.390625 34.746094 34.390625 34.753906 34.386719 34.757812 Z M 37.34375 38.871094 C 36.578125 38.710938 35.121094 39.226562 35.121094 39.226562 L 34.8125 39.054688 C 35.644531 38.832031 36.332031 38.644531 36.816406 38.511719 C 37.300781 38.378906 37.574219 38.304688 37.574219 38.304688 C 37.574219 38.304688 38.042969 38.207031 38.734375 38.027344 L 38.800781 39.105469 C 38.183594 38.617188 37.34375 38.871094 37.34375 38.871094 Z M 41.222656 32.988281 L 42.125 33.078125 C 42.136719 33.078125 42.148438 33.082031 42.15625 33.09375 L 42.503906 33.453125 C 42.539062 33.488281 42.511719 33.542969 42.464844 33.542969 L 41.492188 33.484375 C 41.476562 33.484375 41.460938 33.476562 41.453125 33.460938 L 41.171875 33.070312 C 41.148438 33.035156 41.175781 32.984375 41.222656 32.988281 Z M 40.519531 33.050781 C 40.527344 33.03125 40.542969 33.019531 40.5625 33.019531 L 40.90625 32.976562 C 40.921875 32.976562 40.941406 32.984375 40.953125 33 L 41.25 33.429688 C 41.273438 33.460938 41.253906 33.507812 41.214844 33.511719 L 40.351562 33.648438 C 40.308594 33.652344 40.277344 33.609375 40.292969 33.570312 Z M 39.625 33.414062 C 39.671875 33.316406 39.746094 33.230469 39.835938 33.171875 C 39.90625 33.125 39.984375 33.097656 40.066406 33.085938 L 40.335938 33.046875 L 40.046875 33.699219 L 39.449219 33.8125 Z M 39.625 33.414062 "/>
</g>
</svg>
